<svg xmlns="http://www.w3.org/2000/svg" viewBox="0 0 393.17 505.01"><defs><style>.cls-1{fill:none;stroke:#fff;stroke-linecap:round;stroke-miterlimit:10;stroke-width:11px;}.cls-2{fill:#fff;}</style></defs><g id="Layer_2" data-name="Layer 2"><g id="Layer_1-2" data-name="Layer 1"><path class="cls-1" d="M72.88,499.51s42-23,79-23,61.53,23,92.26,23,73.74-11,73.74-11"/><path class="cls-1" d="M317.88,452.51s-43,14-73.74,14-55.26-23-92.26-23c-18.5,0-38.25,5.75-53.38,11.5L72.88,438.66s25-22.15,25-68.15-33-61-33-105-9-57-38-80-28-72.6,0-47.8,38,24.68,48,2.8,45-136,126-135S306,57,305.45,104.27s12.43,70.24,29.43,71.24,38-26,49-16-2,35-38,52-53.64,34.18-40,66c9,21,23,49,23,83S317.45,414,317.88,452.51Z"/><ellipse class="cls-2" cx="164.63" cy="105.16" rx="22" ry="15.97" transform="translate(38.11 254.01) rotate(-82.21)"/><ellipse class="cls-2" cx="245.02" cy="115.16" rx="22" ry="15.97" transform="matrix(0.14, -0.99, 0.99, 0.14, 97.7, 342.3)"/></g></g></svg>