<?xml version="1.0" encoding="utf-8"?>
<!-- Generator: Adobe Illustrator 27.1.0, SVG Export Plug-In . SVG Version: 6.00 Build 0)  -->
<svg version="1.1" id="Layer_1" xmlns="http://www.w3.org/2000/svg" xmlns:xlink="http://www.w3.org/1999/xlink" x="0px" y="0px"
	 viewBox="0 0 450 450" style="enable-background:new 0 0 450 450;" xml:space="preserve">
<style type="text/css">
	.st0{opacity:0.4;}
	.st1{fill:none;stroke:#FFFFFF;stroke-width:10;stroke-linecap:round;stroke-miterlimit:10;}
	.st2{fill:#FFFFFF;}
</style>
<g id="Layer_2_00000088128853845399895330000012440851137176667277_" class="st0">
	<g id="Layer_1-2">
		<path class="st1" d="M-15.9,355.4c0,0-20.4-10.4-31.4-21.4s-11.5-28-24.8-41.2c-6.6-6.6-15.7-11.6-23.2-15l-3.3-15
			c0,0,16.9,1,33.3-15.4s10-33.6,25.8-49.4s17.2-23.6,15-42.2s16-36,17.1-17.1c1.1,18.9,4.8,22.4,16.2,18.2
			c11.4-4.3,64.8-32.6,93.4-3.2s19.2,56,2.1,72.8s-20.7,29.6-15,36c5.7,6.4,22.9,4.3,23.3,11.8s-13.2,11.8-32.2,5
			c-19-6.8-31.4-7-37.9,9.3c-4.3,10.7-9.3,25.8-21.5,37.9C8.7,338.6-2.3,341.5-15.9,355.4z"/>
		
			<ellipse transform="matrix(0.7964 -0.6047 0.6047 0.7964 -95.7046 68.2388)" class="st2" cx="53.5" cy="176.3" rx="11.1" ry="8.1"/>
		
			<ellipse transform="matrix(0.7992 -0.6011 0.6011 0.7992 -109.9437 89.3912)" class="st2" cx="78.8" cy="209.2" rx="11.1" ry="8.1"/>
	</g>
</g>
<g id="Layer_2_00000041985138145272921880000016004431540525800883_" class="st0">
	<g id="Layer_1-2_00000149342904282024830550000004117843541088245432_">
		<path class="st1" d="M274.5,176.3c0,0,6.8-23.3,20-36.5c13.2-13.2,30.2-13.8,41.2-24.8s22.5-30.3,22.5-30.3"/>
		<path class="st1" d="M345.4,71.8c0,0-10.4,20.4-21.4,31.4s-28,11.5-41.2,24.8c-6.6,6.6-11.6,15.7-15,23.2l-15,3.3
			c0,0,1-16.9-15.4-33.3s-33.6-10-49.4-25.8s-23.6-17.2-42.2-15s-36-16-17.1-17.1s22.4-4.8,18.2-16.2s-32.6-64.8-3.2-93.4
			s56-19.2,72.8-2.1s29.6,20.7,36,15s4.3-22.9,11.8-23.3c7.5-0.4,11.8,13.2,5,32.2s-7,31.4,9.3,37.9c10.7,4.3,25.8,9.3,37.9,21.5
			S331.4,58.2,345.4,71.8z"/>
		
			<ellipse transform="matrix(0.7964 -0.6047 0.6047 0.7964 32.4226 100.9998)" class="st2" cx="166.2" cy="2.3" rx="8.1" ry="11.1"/>
	</g>
</g>
<g id="Layer_2_00000179637185153247051800000012254545577602615739_" class="st0">
	<g id="Layer_1-2_00000013157006461526334000000003739442555028686231_">
		<path class="st1" d="M345.4,521.8c0,0-10.4,20.4-21.4,31.4s-28,11.5-41.2,24.8c-6.6,6.6-11.6,15.7-15,23.2l-15,3.3
			c0,0,1-16.9-15.4-33.3s-33.6-10-49.4-25.8c-15.7-15.7-23.6-17.2-42.2-15s-36-16-17.1-17.1c18.9-1.1,22.4-4.8,18.2-16.2
			s-32.6-64.8-3.2-93.4s56-19.2,72.8-2.1s29.6,20.7,36,15s4.3-22.9,11.8-23.3c7.5-0.4,11.8,13.2,5,32.2s-7,31.4,9.3,37.9
			c10.7,4.3,25.8,9.3,37.9,21.5C328.5,497.1,331.4,508.2,345.4,521.8z"/>
		
			<ellipse transform="matrix(0.7964 -0.6047 0.6047 0.7964 -239.7095 192.6088)" class="st2" cx="166.2" cy="452.3" rx="8.1" ry="11.1"/>
		
			<ellipse transform="matrix(0.7992 -0.6011 0.6011 0.7992 -216.7049 205.5051)" class="st2" cx="199.2" cy="427" rx="8.1" ry="11.1"/>
	</g>
</g>
<g id="Layer_2_00000103250238071377260810000007212602414659052677_" class="st0">
	<g id="Layer_1-2_00000181784364239797893710000012999274509862894226_">
		<path class="st1" d="M329.6,284.6c0,0,23.3,6.8,36.5,20c13.2,13.2,13.8,30.2,24.8,41.2s30.3,22.5,30.3,22.5"/>
		<path class="st1" d="M434.1,355.4c0,0-20.4-10.4-31.4-21.4s-11.5-28-24.8-41.2c-6.6-6.6-15.7-11.6-23.2-15l-3.3-15
			c0,0,16.9,1,33.3-15.4c16.5-16.5,10-33.6,25.8-49.4s17.2-23.6,15-42.2c-2.1-18.6,16-36,17.1-17.1c1.1,18.9,4.8,22.4,16.2,18.2
			c11.4-4.3,64.8-32.6,93.4-3.2s19.2,56,2.1,72.8c-17.1,16.7-20.7,29.6-15,36c5.7,6.4,22.9,4.3,23.3,11.8c0.4,7.5-13.2,11.8-32.2,5
			c-19-6.8-31.4-7-37.9,9.3c-4.3,10.7-9.3,25.8-21.5,37.9C458.7,338.6,447.7,341.5,434.1,355.4z"/>
	</g>
</g>
</svg>
