<?xml version="1.0" encoding="UTF-8"?>
<svg id="Layer_1" data-name="Layer 1" xmlns="http://www.w3.org/2000/svg" viewBox="0 0 450 450">
  <defs>
    <style>
      .cls-1 {
        fill: #fff;
      }

      .cls-2 {
        fill: none;
        stroke: #fff;
        stroke-linecap: round;
        stroke-miterlimit: 10;
        stroke-width: 10px;
      }

      .cls-3 {
        opacity: .4;
      }
    </style>
  </defs>
  <g id="Layer_2" data-name="Layer 2" class="cls-3">
    <g id="Layer_1-2" data-name="Layer 1-2">
      <path class="cls-2" d="m-15.95,355.4s-20.4-10.38-31.4-21.38c-11-11-11.54-28-24.78-41.24-6.62-6.62-15.74-11.63-23.22-14.99l-3.32-15.02s16.87,1.02,33.33-15.44c16.46-16.46,10.02-33.64,25.76-49.38,15.74-15.74,17.18-23.62,15.03-42.22-2.15-18.61,15.96-36,17.1-17.1,1.15,18.89,4.77,22.43,16.17,18.18s64.77-32.56,93.39-3.22c28.63,29.34,19.19,56.04,2.08,72.76-17.11,16.72-20.69,29.58-14.96,36.02s22.9,4.29,23.26,11.81-13.24,11.81-32.2,5.01c-18.96-6.8-31.42-6.96-37.93,9.3-4.29,10.73-9.3,25.76-21.47,37.93-12.17,12.17-23.23,15.05-36.86,28.98Z"/>
      <ellipse class="cls-1" cx="53.5" cy="176.27" rx="11.13" ry="8.08" transform="translate(-95.7 68.24) rotate(-37.21)"/>
      <ellipse class="cls-1" cx="78.8" cy="209.22" rx="11.13" ry="8.08" transform="translate(-109.94 89.39) rotate(-36.95)"/>
    </g>
  </g>
  <g id="Layer_2-2" data-name="Layer 2" class="cls-3">
    <g id="Layer_1-2-2" data-name="Layer 1-2">
      <path class="cls-2" d="m274.51,176.28s6.8-23.26,20.04-36.5c13.24-13.24,30.25-13.79,41.24-24.78,11-11,22.45-30.32,22.45-30.32"/>
      <path class="cls-2" d="m345.36,71.79s-10.38,20.4-21.38,31.4c-11,11-28,11.54-41.24,24.78-6.62,6.62-11.63,15.74-14.99,23.22l-15.02,3.32s1.02-16.87-15.44-33.33c-16.46-16.46-33.64-10.02-49.38-25.76-15.74-15.74-23.62-17.18-42.22-15.03-18.61,2.15-36-15.96-17.1-17.1,18.89-1.15,22.43-4.77,18.18-16.17s-32.56-64.77-3.22-93.39c29.34-28.63,56.04-19.19,72.76-2.08,16.72,17.11,29.58,20.69,36.02,14.96s4.29-22.9,11.81-23.26,11.81,13.24,5.01,32.2c-6.8,18.96-6.96,31.42,9.3,37.93,10.73,4.29,25.76,9.3,37.93,21.47,12.17,12.17,15.05,23.23,28.98,36.86Z"/>
      <ellipse class="cls-1" cx="166.23" cy="2.34" rx="8.08" ry="11.13" transform="translate(32.42 101) rotate(-37.21)"/>
    </g>
  </g>
  <g id="Layer_2-3" data-name="Layer 2" class="cls-3">
    <g id="Layer_1-2-3" data-name="Layer 1-2">
      <path class="cls-2" d="m345.36,521.79s-10.38,20.4-21.38,31.4c-11,11-28,11.54-41.24,24.78-6.62,6.62-11.63,15.74-14.99,23.22l-15.02,3.32s1.02-16.87-15.44-33.33c-16.46-16.46-33.64-10.02-49.38-25.76-15.74-15.74-23.62-17.18-42.22-15.03-18.61,2.15-36-15.96-17.1-17.1,18.89-1.15,22.43-4.77,18.18-16.17s-32.56-64.77-3.22-93.39c29.34-28.63,56.04-19.19,72.76-2.08,16.72,17.11,29.58,20.69,36.02,14.96,6.44-5.73,4.29-22.9,11.81-23.26s11.81,13.24,5.01,32.2c-6.8,18.96-6.96,31.42,9.3,37.93,10.73,4.29,25.76,9.3,37.93,21.47,12.17,12.17,15.05,23.23,28.98,36.86Z"/>
      <ellipse class="cls-1" cx="166.23" cy="452.34" rx="8.08" ry="11.13" transform="translate(-239.71 192.61) rotate(-37.21)"/>
      <ellipse class="cls-1" cx="199.18" cy="427.05" rx="8.08" ry="11.13" transform="translate(-216.7 205.51) rotate(-36.95)"/>
    </g>
  </g>
  <g id="Layer_2-4" data-name="Layer 2" class="cls-3">
    <g id="Layer_1-2-4" data-name="Layer 1-2">
      <path class="cls-2" d="m329.57,284.56s23.26,6.8,36.5,20.04c13.24,13.24,13.79,30.25,24.78,41.24,11,11,30.32,22.45,30.32,22.45"/>
      <path class="cls-2" d="m434.05,355.4s-20.4-10.38-31.4-21.38c-11-11-11.54-28-24.78-41.24-6.62-6.62-15.74-11.63-23.22-14.99l-3.32-15.02s16.87,1.02,33.33-15.44,10.02-33.64,25.76-49.38c15.74-15.74,17.18-23.62,15.03-42.22-2.15-18.61,15.96-36,17.1-17.1,1.15,18.89,4.77,22.43,16.17,18.18,11.41-4.25,64.77-32.56,93.39-3.22,28.63,29.34,19.19,56.04,2.08,72.76s-20.69,29.58-14.96,36.02c5.73,6.44,22.9,4.29,23.26,11.81s-13.24,11.81-32.2,5.01c-18.96-6.8-31.42-6.96-37.93,9.3-4.29,10.73-9.3,25.76-21.47,37.93-12.17,12.17-23.23,15.05-36.86,28.98Z"/>
    </g>
  </g>
</svg>